<svg width="106" height="16" viewBox="0 0 106 16" fill="none" xmlns="http://www.w3.org/2000/svg">
<path d="M0.942059 12H8.35206V10.8H3.56706L6.91206 7.395C7.32206 6.975 7.65706 6.5 7.91706 5.97C8.17706 5.44 8.30706 4.905 8.30706 4.365C8.30706 4.045 8.24206 3.71 8.11206 3.36C7.98206 3.01 7.78206 2.685 7.51206 2.385C7.24206 2.075 6.89706 1.825 6.47706 1.635C6.05706 1.435 5.55706 1.335 4.97706 1.335C4.25706 1.335 3.63706 1.495 3.11706 1.815C2.60706 2.125 2.21706 2.565 1.94706 3.135C1.67706 3.695 1.54206 4.35 1.54206 5.1H2.81706C2.81706 4.57 2.90206 4.115 3.07206 3.735C3.24206 3.345 3.48706 3.05 3.80706 2.85C4.13706 2.64 4.52706 2.535 4.97706 2.535C5.29706 2.535 5.58206 2.59 5.83206 2.7C6.08206 2.81 6.29206 2.955 6.46206 3.135C6.64206 3.315 6.77706 3.515 6.86706 3.735C6.95706 3.955 7.00206 4.18 7.00206 4.41C7.00206 4.69 6.95706 4.96 6.86706 5.22C6.78706 5.47 6.66206 5.72 6.49206 5.97C6.33206 6.21 6.13706 6.455 5.90706 6.705L0.942059 12ZM11.0571 6.75C11.0571 6.14 11.1171 5.58 11.2371 5.07C11.3571 4.55 11.5321 4.105 11.7621 3.735C11.9921 3.355 12.2671 3.065 12.5871 2.865C12.9171 2.655 13.2821 2.55 13.6821 2.55C14.0921 2.55 14.4571 2.655 14.7771 2.865C15.0971 3.065 15.3721 3.355 15.6021 3.735C15.8321 4.105 16.0071 4.55 16.1271 5.07C16.2471 5.58 16.3071 6.14 16.3071 6.75C16.3071 7.36 16.2471 7.925 16.1271 8.445C16.0071 8.955 15.8321 9.4 15.6021 9.78C15.3721 10.15 15.0971 10.44 14.7771 10.65C14.4571 10.85 14.0921 10.95 13.6821 10.95C13.2821 10.95 12.9171 10.85 12.5871 10.65C12.2671 10.44 11.9921 10.15 11.7621 9.78C11.5321 9.4 11.3571 8.955 11.2371 8.445C11.1171 7.925 11.0571 7.36 11.0571 6.75ZM9.7821 6.75C9.7821 7.8 9.9471 8.73 10.2771 9.54C10.6071 10.35 11.0621 10.99 11.6421 11.46C12.2321 11.92 12.9121 12.15 13.6821 12.15C14.4521 12.15 15.1271 11.92 15.7071 11.46C16.2971 10.99 16.7571 10.35 17.0871 9.54C17.4171 8.73 17.5821 7.8 17.5821 6.75C17.5821 5.7 17.4171 4.77 17.0871 3.96C16.7571 3.15 16.2971 2.515 15.7071 2.055C15.1271 1.585 14.4521 1.35 13.6821 1.35C12.9121 1.35 12.2321 1.585 11.6421 2.055C11.0621 2.515 10.6071 3.15 10.2771 3.96C9.9471 4.77 9.7821 5.7 9.7821 6.75ZM18.4762 12H25.8862V10.8H21.1012L24.4462 7.395C24.8562 6.975 25.1912 6.5 25.4512 5.97C25.7112 5.44 25.8412 4.905 25.8412 4.365C25.8412 4.045 25.7762 3.71 25.6462 3.36C25.5162 3.01 25.3162 2.685 25.0462 2.385C24.7762 2.075 24.4312 1.825 24.0112 1.635C23.5912 1.435 23.0912 1.335 22.5112 1.335C21.7912 1.335 21.1712 1.495 20.6512 1.815C20.1412 2.125 19.7512 2.565 19.4812 3.135C19.2112 3.695 19.0762 4.35 19.0762 5.1H20.3512C20.3512 4.57 20.4362 4.115 20.6062 3.735C20.7762 3.345 21.0212 3.05 21.3412 2.85C21.6712 2.64 22.0612 2.535 22.5112 2.535C22.8312 2.535 23.1162 2.59 23.3662 2.7C23.6162 2.81 23.8262 2.955 23.9962 3.135C24.1762 3.315 24.3112 3.515 24.4012 3.735C24.4912 3.955 24.5362 4.18 24.5362 4.41C24.5362 4.69 24.4912 4.96 24.4012 5.22C24.3212 5.47 24.1962 5.72 24.0262 5.97C23.8662 6.21 23.6712 6.455 23.4412 6.705L18.4762 12ZM30.5113 6.825C31.1913 6.825 31.7863 6.705 32.2963 6.465C32.8063 6.225 33.2063 5.9 33.4963 5.49C33.7863 5.08 33.9313 4.63 33.9313 4.14C33.9313 3.64 33.8113 3.18 33.5713 2.76C33.3413 2.34 33.0063 2 32.5663 1.74C32.1363 1.48 31.6213 1.35 31.0213 1.35C30.4513 1.35 29.9413 1.47 29.4913 1.71C29.0513 1.94 28.7013 2.26 28.4413 2.67C28.1913 3.08 28.0663 3.56 28.0663 4.11H29.2813C29.2813 3.65 29.4513 3.27 29.7913 2.97C30.1313 2.66 30.5463 2.505 31.0363 2.505C31.3863 2.505 31.6763 2.575 31.9063 2.715C32.1463 2.855 32.3263 3.055 32.4463 3.315C32.5663 3.565 32.6263 3.855 32.6263 4.185C32.6263 4.435 32.5763 4.67 32.4763 4.89C32.3863 5.11 32.2513 5.305 32.0713 5.475C31.8913 5.635 31.6713 5.765 31.4113 5.865C31.1513 5.955 30.8513 6 30.5113 6V6.825ZM30.9613 12.15C31.5913 12.15 32.1513 12.03 32.6413 11.79C33.1313 11.55 33.5163 11.21 33.7963 10.77C34.0863 10.33 34.2313 9.815 34.2313 9.225C34.2313 8.705 34.1313 8.26 33.9313 7.89C33.7413 7.52 33.4713 7.22 33.1213 6.99C32.7813 6.75 32.3863 6.575 31.9363 6.465C31.4963 6.355 31.0213 6.3 30.5113 6.3V7.125C30.8513 7.125 31.1663 7.165 31.4563 7.245C31.7463 7.325 32.0013 7.45 32.2213 7.62C32.4413 7.78 32.6113 7.985 32.7313 8.235C32.8613 8.475 32.9263 8.755 32.9263 9.075C32.9263 9.455 32.8463 9.785 32.6863 10.065C32.5263 10.345 32.2963 10.565 31.9963 10.725C31.7063 10.875 31.3613 10.95 30.9613 10.95C30.5613 10.95 30.2063 10.875 29.8963 10.725C29.5863 10.575 29.3413 10.37 29.1613 10.11C28.9913 9.85 28.9063 9.555 28.9063 9.225H27.6163C27.6163 9.635 27.6963 10.02 27.8563 10.38C28.0163 10.73 28.2413 11.04 28.5313 11.31C28.8213 11.57 29.1713 11.775 29.5813 11.925C29.9913 12.075 30.4513 12.15 30.9613 12.15ZM46.1039 6.45H47.7989C48.4289 6.45 48.9739 6.36 49.4339 6.18C49.9039 6 50.2689 5.735 50.5289 5.385C50.7889 5.035 50.9189 4.615 50.9189 4.125C50.9189 3.525 50.7889 3.035 50.5289 2.655C50.2689 2.265 49.9039 1.975 49.4339 1.785C48.9739 1.595 48.4289 1.5 47.7989 1.5H45.0989V12H47.9489C48.6289 12 49.2339 11.89 49.7639 11.67C50.3039 11.44 50.7289 11.1 51.0389 10.65C51.3589 10.19 51.5189 9.615 51.5189 8.925C51.5189 8.445 51.4289 8.03 51.2489 7.68C51.0689 7.33 50.8139 7.045 50.4839 6.825C50.1639 6.595 49.7889 6.425 49.3589 6.315C48.9289 6.205 48.4589 6.15 47.9489 6.15H46.1039V6.855H47.9489C48.2889 6.855 48.5989 6.9 48.8789 6.99C49.1589 7.07 49.3989 7.195 49.5989 7.365C49.8089 7.535 49.9689 7.745 50.0789 7.995C50.1889 8.245 50.2439 8.53 50.2439 8.85C50.2439 9.28 50.1439 9.645 49.9439 9.945C49.7539 10.245 49.4839 10.475 49.1339 10.635C48.7939 10.795 48.3989 10.875 47.9489 10.875H46.3739V2.625H47.7989C48.3289 2.625 48.7689 2.765 49.1189 3.045C49.4689 3.315 49.6439 3.7 49.6439 4.2C49.6439 4.53 49.5639 4.81 49.4039 5.04C49.2439 5.27 49.0239 5.445 48.7439 5.565C48.4639 5.685 48.1489 5.745 47.7989 5.745H46.1039V6.45ZM58.8632 5.1H57.5132L55.3832 10.44L55.8782 10.5L53.6882 5.1H52.2632L54.9032 11.025L53.0132 15.3H54.3632L58.8632 5.1ZM64.5667 1.5V12H65.8417V1.5H64.5667ZM77.5884 9.225L74.4684 0.975L71.4084 9.225L68.6184 1.5H67.1934L71.3184 12.525L74.4684 4.365L77.6184 12.525L81.7434 1.5H80.3184L77.5884 9.225ZM81.8969 13.995H89.3969V13.17H81.8969V13.995ZM91.6019 6.45H93.2969C93.9269 6.45 94.4719 6.36 94.9319 6.18C95.4019 6 95.7669 5.735 96.0269 5.385C96.2869 5.035 96.4169 4.615 96.4169 4.125C96.4169 3.525 96.2869 3.035 96.0269 2.655C95.7669 2.265 95.4019 1.975 94.9319 1.785C94.4719 1.595 93.9269 1.5 93.2969 1.5H90.5969V12H93.4469C94.1269 12 94.7319 11.89 95.2619 11.67C95.8019 11.44 96.2269 11.1 96.5369 10.65C96.8569 10.19 97.0169 9.615 97.0169 8.925C97.0169 8.445 96.9269 8.03 96.7469 7.68C96.5669 7.33 96.3119 7.045 95.9819 6.825C95.6619 6.595 95.2869 6.425 94.8569 6.315C94.4269 6.205 93.9569 6.15 93.4469 6.15H91.6019V6.855H93.4469C93.7869 6.855 94.0969 6.9 94.3769 6.99C94.6569 7.07 94.8969 7.195 95.0969 7.365C95.3069 7.535 95.4669 7.745 95.5769 7.995C95.6869 8.245 95.7419 8.53 95.7419 8.85C95.7419 9.28 95.6419 9.645 95.4419 9.945C95.2519 10.245 94.9819 10.475 94.6319 10.635C94.2919 10.795 93.8969 10.875 93.4469 10.875H91.8719V2.625H93.2969C93.8269 2.625 94.2669 2.765 94.6169 3.045C94.9669 3.315 95.1419 3.7 95.1419 4.2C95.1419 4.53 95.0619 4.81 94.9019 5.04C94.7419 5.27 94.5219 5.445 94.2419 5.565C93.9619 5.685 93.6469 5.745 93.2969 5.745H91.6019V6.45ZM101.556 6.825C102.236 6.825 102.831 6.705 103.341 6.465C103.851 6.225 104.251 5.9 104.541 5.49C104.831 5.08 104.976 4.63 104.976 4.14C104.976 3.64 104.856 3.18 104.616 2.76C104.386 2.34 104.051 2 103.611 1.74C103.181 1.48 102.666 1.35 102.066 1.35C101.496 1.35 100.986 1.47 100.536 1.71C100.096 1.94 99.7462 2.26 99.4862 2.67C99.2362 3.08 99.1112 3.56 99.1112 4.11H100.326C100.326 3.65 100.496 3.27 100.836 2.97C101.176 2.66 101.591 2.505 102.081 2.505C102.431 2.505 102.721 2.575 102.951 2.715C103.191 2.855 103.371 3.055 103.491 3.315C103.611 3.565 103.671 3.855 103.671 4.185C103.671 4.435 103.621 4.67 103.521 4.89C103.431 5.11 103.296 5.305 103.116 5.475C102.936 5.635 102.716 5.765 102.456 5.865C102.196 5.955 101.896 6 101.556 6V6.825ZM102.006 12.15C102.636 12.15 103.196 12.03 103.686 11.79C104.176 11.55 104.561 11.21 104.841 10.77C105.131 10.33 105.276 9.815 105.276 9.225C105.276 8.705 105.176 8.26 104.976 7.89C104.786 7.52 104.516 7.22 104.166 6.99C103.826 6.75 103.431 6.575 102.981 6.465C102.541 6.355 102.066 6.3 101.556 6.3V7.125C101.896 7.125 102.211 7.165 102.501 7.245C102.791 7.325 103.046 7.45 103.266 7.62C103.486 7.78 103.656 7.985 103.776 8.235C103.906 8.475 103.971 8.755 103.971 9.075C103.971 9.455 103.891 9.785 103.731 10.065C103.571 10.345 103.341 10.565 103.041 10.725C102.751 10.875 102.406 10.95 102.006 10.95C101.606 10.95 101.251 10.875 100.941 10.725C100.631 10.575 100.386 10.37 100.206 10.11C100.036 9.85 99.9512 9.555 99.9512 9.225H98.6612C98.6612 9.635 98.7412 10.02 98.9012 10.38C99.0612 10.73 99.2862 11.04 99.5762 11.31C99.8662 11.57 100.216 11.775 100.626 11.925C101.036 12.075 101.496 12.15 102.006 12.15Z" fill="black"/>
</svg>
