<svg width="50" height="50" viewBox="0 0 50 50" fill="none" xmlns="http://www.w3.org/2000/svg">
<path d="M10.417 10.4167H37.5003C39.1579 10.4167 40.7476 11.0752 41.9197 12.2473C43.0918 13.4194 43.7503 15.0091 43.7503 16.6667V35.4167C43.7503 37.0743 43.0918 38.664 41.9197 39.8361C40.7476 41.0082 39.1579 41.6667 37.5003 41.6667H10.417C8.75939 41.6667 7.16968 41.0082 5.99757 39.8361C4.82547 38.664 4.16699 37.0743 4.16699 35.4167V16.6667C4.16699 15.0091 4.82547 13.4194 5.99757 12.2473C7.16968 11.0752 8.75939 10.4167 10.417 10.4167ZM10.417 12.5C9.37533 12.5 8.45866 12.8542 7.75033 13.4792L23.9587 23.9584L40.167 13.4792C39.4587 12.8542 38.542 12.5 37.5003 12.5H10.417ZM23.9587 26.4792L6.52116 15.1667C6.35449 15.625 6.25033 16.1459 6.25033 16.6667V35.4167C6.25033 36.5218 6.68931 37.5816 7.47071 38.363C8.25212 39.1444 9.31192 39.5834 10.417 39.5834H37.5003C38.6054 39.5834 39.6652 39.1444 40.4466 38.363C41.228 37.5816 41.667 36.5218 41.667 35.4167V16.6667C41.667 16.1459 41.5628 15.625 41.3962 15.1667L23.9587 26.4792Z" fill="#F0E5D3"/>
</svg>
