<svg width="42" height="39" viewBox="0 0 42 39" fill="none" xmlns="http://www.w3.org/2000/svg">
<path d="M18.6524 34.9897L18.651 34.9884C13.2667 30.106 8.8781 26.1195 5.82382 22.3828C2.78054 18.6595 1.16675 15.3067 1.16675 11.7083C1.16675 5.82431 5.75951 1.25 11.6251 1.25C14.9478 1.25 18.1534 2.80196 20.2412 5.23462L21.0001 6.11876L21.7589 5.23462C23.8468 2.80196 27.0524 1.25 30.3751 1.25C36.2407 1.25 40.8334 5.82431 40.8334 11.7083C40.8334 15.3067 39.2196 18.6595 36.1763 22.3828C33.1221 26.1195 28.7334 30.106 23.3492 34.9884L23.3477 34.9897L21.0001 37.1269L18.6524 34.9897Z" fill="white" stroke="#EC5052" stroke-width="2"/>
</svg>
