<svg width="50" height="50" viewBox="0 0 50 50" fill="none" xmlns="http://www.w3.org/2000/svg">
<path d="M25 16.4062C23.3003 16.4062 21.6388 16.9103 20.2256 17.8546C18.8123 18.7989 17.7109 20.141 17.0604 21.7113C16.41 23.2816 16.2398 25.0095 16.5714 26.6766C16.903 28.3436 17.7214 29.8748 18.9233 31.0767C20.1252 32.2786 21.6564 33.097 23.3234 33.4286C24.9905 33.7602 26.7184 33.59 28.2887 32.9396C29.859 32.2891 31.2011 31.1877 32.1454 29.7744C33.0897 28.3612 33.5938 26.6997 33.5938 25C33.5912 22.7216 32.6849 20.5372 31.0738 18.9262C29.4628 17.3151 27.2784 16.4088 25 16.4062ZM25 32.0312C23.6094 32.0312 22.2499 31.6189 21.0936 30.8463C19.9374 30.0737 19.0361 28.9755 18.504 27.6907C17.9718 26.4059 17.8326 24.9922 18.1039 23.6283C18.3752 22.2643 19.0448 21.0115 20.0282 20.0282C21.0115 19.0448 22.2643 18.3752 23.6283 18.1039C24.9922 17.8326 26.4059 17.9718 27.6907 18.504C28.9755 19.0361 30.0737 19.9374 30.8463 21.0936C31.6189 22.2499 32.0312 23.6094 32.0312 25C32.0312 26.8648 31.2905 28.6532 29.9718 29.9718C28.6532 31.2905 26.8648 32.0312 25 32.0312ZM34.375 5.46875H15.625C12.9323 5.47185 10.3509 6.54288 8.44687 8.44687C6.54288 10.3509 5.47185 12.9323 5.46875 15.625V34.375C5.47185 37.0677 6.54288 39.6491 8.44687 41.5531C10.3509 43.4571 12.9323 44.5281 15.625 44.5312H34.375C37.0677 44.5281 39.6491 43.4571 41.5531 41.5531C43.4571 39.6491 44.5281 37.0677 44.5312 34.375V15.625C44.5281 12.9323 43.4571 10.3509 41.5531 8.44687C39.6491 6.54288 37.0677 5.47185 34.375 5.46875ZM42.9688 34.375C42.9662 36.6534 42.0599 38.8378 40.4488 40.4488C38.8378 42.0599 36.6534 42.9662 34.375 42.9688H15.625C13.3466 42.9662 11.1622 42.0599 9.55116 40.4488C7.94007 38.8378 7.03383 36.6534 7.03125 34.375V15.625C7.03383 13.3466 7.94007 11.1622 9.55116 9.55116C11.1622 7.94007 13.3466 7.03383 15.625 7.03125H34.375C36.6534 7.03383 38.8378 7.94007 40.4488 9.55116C42.0599 11.1622 42.9662 13.3466 42.9688 15.625V34.375ZM36.7188 14.8438C36.7188 15.1528 36.6271 15.4549 36.4554 15.7118C36.2837 15.9688 36.0397 16.1691 35.7542 16.2873C35.4687 16.4056 35.1545 16.4365 34.8514 16.3762C34.5483 16.3159 34.2699 16.1671 34.0514 15.9486C33.8329 15.7301 33.6841 15.4517 33.6238 15.1486C33.5635 14.8455 33.5944 14.5313 33.7127 14.2458C33.8309 13.9603 34.0312 13.7163 34.2882 13.5446C34.5451 13.3729 34.8472 13.2812 35.1562 13.2812C35.5707 13.2812 35.9681 13.4459 36.2611 13.7389C36.5541 14.0319 36.7188 14.4293 36.7188 14.8438Z" fill="#F0E5D3"/>
</svg>
