<svg width="35" height="35" viewBox="0 0 35 35" xmlns="http://www.w3.org/2000/svg">
<path d="M17.5 11.4844C16.3102 11.4844 15.1472 11.8372 14.1579 12.4982C13.1686 13.1592 12.3976 14.0987 11.9423 15.1979C11.487 16.2971 11.3678 17.5067 11.6 18.6736C11.8321 19.8405 12.405 20.9124 13.2463 21.7537C14.0876 22.595 15.1595 23.1679 16.3264 23.4C17.4933 23.6322 18.7029 23.513 19.8021 23.0577C20.9013 22.6024 21.8408 21.8314 22.5018 20.8421C23.1628 19.8528 23.5156 18.6898 23.5156 17.5C23.5138 15.9051 22.8794 14.3761 21.7517 13.2483C20.6239 12.1206 19.0949 11.4862 17.5 11.4844ZM17.5 22.4219C16.5265 22.4219 15.575 22.1332 14.7656 21.5924C13.9562 21.0516 13.3253 20.2829 12.9528 19.3835C12.5803 18.4842 12.4828 17.4945 12.6727 16.5398C12.8626 15.585 13.3314 14.708 14.0197 14.0197C14.708 13.3314 15.585 12.8626 16.5398 12.6727C17.4945 12.4828 18.4842 12.5803 19.3835 12.9528C20.2829 13.3253 21.0516 13.9562 21.5924 14.7656C22.1332 15.575 22.4219 16.5265 22.4219 17.5C22.4219 18.8054 21.9033 20.0573 20.9803 20.9803C20.0573 21.9033 18.8054 22.4219 17.5 22.4219ZM24.0625 3.82812H10.9375C9.05264 3.8303 7.24561 4.58001 5.91281 5.91281C4.58001 7.24561 3.8303 9.05264 3.82812 10.9375V24.0625C3.8303 25.9474 4.58001 27.7544 5.91281 29.0872C7.24561 30.42 9.05264 31.1697 10.9375 31.1719H24.0625C25.9474 31.1697 27.7544 30.42 29.0872 29.0872C30.42 27.7544 31.1697 25.9474 31.1719 24.0625V10.9375C31.1697 9.05264 30.42 7.24561 29.0872 5.91281C27.7544 4.58001 25.9474 3.8303 24.0625 3.82812ZM30.0781 24.0625C30.0763 25.6574 29.4419 27.1864 28.3142 28.3142C27.1864 29.4419 25.6574 30.0763 24.0625 30.0781H10.9375C9.34261 30.0763 7.81357 29.4419 6.68581 28.3142C5.55805 27.1864 4.92368 25.6574 4.92188 24.0625V10.9375C4.92368 9.34261 5.55805 7.81357 6.68581 6.68581C7.81357 5.55805 9.34261 4.92368 10.9375 4.92188H24.0625C25.6574 4.92368 27.1864 5.55805 28.3142 6.68581C29.4419 7.81357 30.0763 9.34261 30.0781 10.9375V24.0625ZM25.7031 10.3906C25.7031 10.6069 25.639 10.8184 25.5188 10.9983C25.3986 11.1781 25.2278 11.3183 25.0279 11.4011C24.8281 11.4839 24.6082 11.5056 24.396 11.4634C24.1838 11.4212 23.9889 11.317 23.836 11.164C23.683 11.0111 23.5788 10.8162 23.5366 10.604C23.4944 10.3918 23.5161 10.1719 23.5989 9.97206C23.6817 9.77221 23.8219 9.60139 24.0017 9.4812C24.1816 9.36102 24.3931 9.29688 24.6094 9.29688C24.8995 9.29688 25.1777 9.41211 25.3828 9.61723C25.5879 9.82235 25.7031 10.1005 25.7031 10.3906Z"/>
</svg>