<svg width="50" height="50" viewBox="0 0 50 50" fill="none" xmlns="http://www.w3.org/2000/svg">
<path d="M40.6253 45.8333C41.4541 45.8333 42.249 45.5041 42.835 44.918C43.4211 44.332 43.7503 43.5371 43.7503 42.7083V35.4167C43.7503 34.5879 43.4211 33.793 42.835 33.207C42.249 32.6209 41.4541 32.2917 40.6253 32.2917C38.1878 32.2917 35.792 31.9167 33.5003 31.1458C32.9524 30.9729 32.3676 30.9533 31.8094 31.0892C31.2511 31.2251 30.7408 31.5113 30.3337 31.9167L27.3337 34.9167C22.151 32.0882 17.8913 27.8285 15.0628 22.6458L18.042 19.6667C18.8962 18.8542 19.2087 17.6458 18.8337 16.4792C18.0837 14.2083 17.7087 11.8125 17.7087 9.375C17.7087 8.5462 17.3794 7.75134 16.7934 7.16529C16.2073 6.57924 15.4125 6.25 14.5837 6.25H7.29199C6.46319 6.25 5.66833 6.57924 5.08228 7.16529C4.49623 7.75134 4.16699 8.5462 4.16699 9.375C4.16699 29.4792 20.5212 45.8333 40.6253 45.8333ZM7.29199 8.33333H14.5837C14.8599 8.33333 15.1249 8.44308 15.3202 8.63843C15.5156 8.83378 15.6253 9.09873 15.6253 9.375C15.6253 12.0417 16.042 14.6458 16.8545 17.125C16.9587 17.4167 16.9378 17.8333 16.6045 18.1667L12.5003 22.25C15.9378 28.9792 20.9795 34.0208 27.7295 37.5L31.792 33.3958C32.0837 33.1042 32.4795 33.0208 32.8545 33.125C35.3545 33.9583 37.9587 34.375 40.6253 34.375C40.9016 34.375 41.1665 34.4847 41.3619 34.6801C41.5573 34.8754 41.667 35.1404 41.667 35.4167V42.7083C41.667 42.9846 41.5573 43.2496 41.3619 43.4449C41.1665 43.6403 40.9016 43.75 40.6253 43.75C21.667 43.75 6.25033 28.3333 6.25033 9.375C6.25033 9.09873 6.36007 8.83378 6.55542 8.63843C6.75077 8.44308 7.01573 8.33333 7.29199 8.33333Z" fill="#F0E5D3"/>
</svg>
