<svg width="20" height="21" viewBox="0 0 20 21" fill="none" xmlns="http://www.w3.org/2000/svg">
<path d="M5.453 10.55C5.453 9.668 5.633 8.894 5.993 8.228C6.371 7.562 6.875 7.04 7.505 6.662C8.153 6.284 8.873 6.095 9.665 6.095C10.457 6.095 11.159 6.248 11.771 6.554C12.401 6.86 12.914 7.265 13.31 7.769V5.96C12.842 5.546 12.32 5.24 11.744 5.042C11.186 4.826 10.493 4.718 9.665 4.718C8.621 4.718 7.667 4.97 6.803 5.474C5.957 5.978 5.273 6.671 4.751 7.553C4.247 8.417 3.995 9.416 3.995 10.55C3.995 11.666 4.247 12.665 4.751 13.547C5.273 14.429 5.957 15.122 6.803 15.626C7.667 16.13 8.621 16.382 9.665 16.382C10.493 16.382 11.186 16.283 11.744 16.085C12.32 15.869 12.842 15.554 13.31 15.14V13.331C12.914 13.835 12.401 14.24 11.771 14.546C11.159 14.852 10.457 15.005 9.665 15.005C8.873 15.005 8.153 14.816 7.505 14.438C6.875 14.06 6.371 13.538 5.993 12.872C5.633 12.206 5.453 11.432 5.453 10.55ZM1.565 10.55C1.565 9.344 1.772 8.237 2.186 7.229C2.6 6.203 3.176 5.312 3.914 4.556C4.67 3.8 5.543 3.215 6.533 2.801C7.541 2.387 8.63 2.18 9.8 2.18C10.97 2.18 12.05 2.387 13.04 2.801C14.048 3.215 14.921 3.8 15.659 4.556C16.415 5.312 17 6.203 17.414 7.229C17.828 8.237 18.035 9.344 18.035 10.55C18.035 11.756 17.828 12.872 17.414 13.898C17 14.906 16.415 15.788 15.659 16.544C14.921 17.3 14.048 17.885 13.04 18.299C12.05 18.713 10.97 18.92 9.8 18.92C8.63 18.92 7.541 18.713 6.533 18.299C5.543 17.885 4.67 17.3 3.914 16.544C3.176 15.788 2.6 14.906 2.186 13.898C1.772 12.872 1.565 11.756 1.565 10.55ZM0.0800001 10.55C0.0800001 11.954 0.323 13.25 0.809 14.438C1.313 15.626 1.997 16.661 2.861 17.543C3.743 18.407 4.778 19.082 5.966 19.568C7.154 20.036 8.432 20.27 9.8 20.27C11.186 20.27 12.464 20.036 13.634 19.568C14.822 19.082 15.848 18.407 16.712 17.543C17.594 16.661 18.278 15.626 18.764 14.438C19.268 13.25 19.52 11.954 19.52 10.55C19.52 9.146 19.268 7.85 18.764 6.662C18.278 5.474 17.594 4.448 16.712 3.584C15.848 2.702 14.822 2.027 13.634 1.559C12.464 1.073 11.186 0.829999 9.8 0.829999C8.432 0.829999 7.154 1.073 5.966 1.559C4.778 2.027 3.743 2.702 2.861 3.584C1.997 4.448 1.313 5.474 0.809 6.662C0.323 7.85 0.0800001 9.146 0.0800001 10.55Z" fill="black"/>
</svg>
