<svg width="35" height="35" viewBox="0 0 35 35" fill="none" xmlns="http://www.w3.org/2000/svg">
<path d="M7.29166 7.29163H26.25C27.4103 7.29163 28.5231 7.75256 29.3436 8.57303C30.1641 9.39351 30.625 10.5063 30.625 11.6666V24.7916C30.625 25.9519 30.1641 27.0647 29.3436 27.8852C28.5231 28.7057 27.4103 29.1666 26.25 29.1666H7.29166C6.13133 29.1666 5.01854 28.7057 4.19806 27.8852C3.37759 27.0647 2.91666 25.9519 2.91666 24.7916V11.6666C2.91666 10.5063 3.37759 9.39351 4.19806 8.57303C5.01854 7.75256 6.13133 7.29163 7.29166 7.29163ZM7.29166 8.74996C6.56249 8.74996 5.92082 8.99788 5.42499 9.43538L16.7708 16.7708L28.1167 9.43538C27.6208 8.99788 26.9792 8.74996 26.25 8.74996H7.29166ZM16.7708 18.5354L4.56457 10.6166C4.44791 10.9375 4.37499 11.302 4.37499 11.6666V24.7916C4.37499 25.5652 4.68228 26.307 5.22926 26.854C5.77624 27.401 6.51811 27.7083 7.29166 27.7083H26.25C27.0235 27.7083 27.7654 27.401 28.3124 26.854C28.8594 26.307 29.1667 25.5652 29.1667 24.7916V11.6666C29.1667 11.302 29.0937 10.9375 28.9771 10.6166L16.7708 18.5354Z" fill="#1D3321"/>
</svg>
