<svg width="53" height="53" viewBox="0 0 53 53" xmlns="http://www.w3.org/2000/svg">
<path d="M49.82 13.25H38.16V12.1458C38.16 8.92456 36.9315 5.83522 34.7449 3.55743C32.5582 1.27965 29.5924 0 26.5 0C23.4076 0 20.4418 1.27965 18.2551 3.55743C16.0685 5.83522 14.84 8.92456 14.84 12.1458V13.25H3.18C2.33661 13.25 1.52777 13.599 0.9314 14.2202C0.335035 14.8414 0 15.684 0 16.5625V49.6875C0 50.566 0.335035 51.4086 0.9314 52.0298C1.52777 52.651 2.33661 53 3.18 53H49.82C50.6634 53 51.4722 52.651 52.0686 52.0298C52.665 51.4086 53 50.566 53 49.6875V16.5625C53 15.684 52.665 14.8414 52.0686 14.2202C51.4722 13.599 50.6634 13.25 49.82 13.25ZM16.96 12.1458C16.96 9.51024 17.9651 6.9826 19.7542 5.11896C21.5433 3.25532 23.9698 2.20833 26.5 2.20833C29.0302 2.20833 31.4567 3.25532 33.2458 5.11896C35.0349 6.9826 36.04 9.51024 36.04 12.1458V13.25H16.96V12.1458ZM50.88 49.6875C50.88 49.9803 50.7683 50.2612 50.5695 50.4683C50.3707 50.6753 50.1011 50.7917 49.82 50.7917H3.18C2.89887 50.7917 2.62926 50.6753 2.43047 50.4683C2.23168 50.2612 2.12 49.9803 2.12 49.6875V16.5625C2.12 16.2697 2.23168 15.9888 2.43047 15.7817C2.62926 15.5747 2.89887 15.4583 3.18 15.4583H14.84V20.9792C14.84 21.272 14.9517 21.5529 15.1505 21.7599C15.3493 21.967 15.6189 22.0833 15.9 22.0833C16.1811 22.0833 16.4507 21.967 16.6495 21.7599C16.8483 21.5529 16.96 21.272 16.96 20.9792V15.4583H36.04V20.9792C36.04 21.272 36.1517 21.5529 36.3505 21.7599C36.5493 21.967 36.8189 22.0833 37.1 22.0833C37.3811 22.0833 37.6507 21.967 37.8495 21.7599C38.0483 21.5529 38.16 21.272 38.16 20.9792V15.4583H49.82C50.1011 15.4583 50.3707 15.5747 50.5695 15.7817C50.7683 15.9888 50.88 16.2697 50.88 16.5625V49.6875Z"/>
</svg>
