<svg width="64" height="64" viewBox="0 0 64 64" fill="none" xmlns="http://www.w3.org/2000/svg">
<path fill-rule="evenodd" clip-rule="evenodd" d="M19.7454 46.2854C28.8721 44.952 35.1561 45.0667 44.2948 46.332C44.9566 46.428 45.5613 46.7601 45.9973 47.2672C46.4333 47.7743 46.6711 48.422 46.6667 49.0907C46.6667 49.7307 46.4467 50.352 46.0494 50.8374C45.3569 51.6835 44.6474 52.5157 43.9214 53.3334H47.4427C47.6641 53.0694 47.8867 52.8 48.1121 52.5267C48.903 51.5568 49.3344 50.3435 49.3334 49.092C49.3334 46.392 47.3627 44.0654 44.6601 43.692C35.3054 42.3974 28.7667 42.2734 19.3601 43.648C16.6294 44.0467 14.6667 46.4094 14.6667 49.128C14.6667 50.3347 15.0601 51.528 15.8054 52.4947C16.0254 52.78 16.2427 53.06 16.4587 53.3347H19.8947C19.2193 52.526 18.5605 51.7036 17.9187 50.868C17.5374 50.3678 17.3316 49.7557 17.3334 49.1267C17.3334 47.6907 18.3654 46.4867 19.7454 46.2854ZM32.0001 33.3334C33.0507 33.3334 34.0909 33.1264 35.0616 32.7244C36.0322 32.3224 36.9141 31.7331 37.6569 30.9902C38.3998 30.2473 38.9891 29.3654 39.3911 28.3948C39.7932 27.4242 40.0001 26.3839 40.0001 25.3334C40.0001 24.2828 39.7932 23.2425 39.3911 22.2719C38.9891 21.3013 38.3998 20.4194 37.6569 19.6765C36.9141 18.9336 36.0322 18.3444 35.0616 17.9423C34.0909 17.5403 33.0507 17.3334 32.0001 17.3334C29.8784 17.3334 27.8435 18.1762 26.3432 19.6765C24.8429 21.1768 24.0001 23.2116 24.0001 25.3334C24.0001 27.4551 24.8429 29.4899 26.3432 30.9902C27.8435 32.4905 29.8784 33.3334 32.0001 33.3334ZM32.0001 36C34.8291 36 37.5422 34.8762 39.5426 32.8758C41.5429 30.8754 42.6667 28.1623 42.6667 25.3334C42.6667 22.5044 41.5429 19.7913 39.5426 17.7909C37.5422 15.7905 34.8291 14.6667 32.0001 14.6667C29.1711 14.6667 26.458 15.7905 24.4576 17.7909C22.4572 19.7913 21.3334 22.5044 21.3334 25.3334C21.3334 28.1623 22.4572 30.8754 24.4576 32.8758C26.458 34.8762 29.1711 36 32.0001 36Z" fill="black"/>
<path fill-rule="evenodd" clip-rule="evenodd" d="M32 56C45.2547 56 56 45.2547 56 32C56 18.7453 45.2547 8.00001 32 8.00001C18.7454 8.00001 8.00004 18.7453 8.00004 32C8.00004 45.2547 18.7454 56 32 56ZM32 58.6667C46.728 58.6667 58.6667 46.728 58.6667 32C58.6667 17.272 46.728 5.33334 32 5.33334C17.272 5.33334 5.33337 17.272 5.33337 32C5.33337 46.728 17.272 58.6667 32 58.6667Z" fill="black"/>
</svg>
